<svg width="160" height="56" viewBox="0 0 160 56" fill="none" xmlns="http://www.w3.org/2000/svg">
<path d="M61.4831 36.367L58.6969 34.624C57.71 35.6917 55.5429 36.5547 53.6395 36.5547C48.0257 36.5547 44.7812 33.2594 44.7812 28.1686C44.7812 22.964 48.1008 19.4824 53.7697 19.4824C56.418 19.4824 58.9161 20.287 60.651 22.0655L58.2372 24.4993C57.0617 23.1517 55.5337 22.6086 53.7621 22.6086C50.0517 22.6086 48.3353 24.6486 48.3353 28.187C48.3353 31.5717 49.9766 33.484 53.6502 33.484C56.2234 33.484 58.1268 31.847 58.2372 29.6101H52.8318V26.427H61.4831V36.367Z" fill="white"/>
<path d="M107.544 36.5537C104.599 36.5537 101.745 35.6306 99.6562 33.6152L102.069 31.1814C103.765 32.7199 105.747 33.4276 107.662 33.4276C110.384 33.4276 111.373 32.5476 111.373 31.6306C111.373 31.1076 110.888 30.2829 108.744 29.7399C108.37 29.6476 106.059 29.066 105.667 28.9706C102.721 28.2014 100.073 27.1168 100.073 24.2722C100.073 21.6322 102.591 19.4414 107.364 19.4414C110.347 19.4414 112.79 20.4537 114.599 22.2876L112.156 24.7214C111.551 24.0347 110.807 23.4844 109.975 23.1068C109.143 22.7292 108.24 22.5329 107.327 22.5306C104.623 22.5306 103.635 23.4106 103.635 24.1783C103.635 24.8706 104.401 25.3014 107.066 25.9937C107.439 26.0876 109.365 26.5922 109.751 26.686C113.201 27.5291 114.934 29.326 114.934 31.5537C114.91 34.1537 112.672 36.5537 107.544 36.5537Z" fill="white"/>
<path d="M121.156 19.6699H117.67V36.3484H121.156V19.6699Z" fill="white"/>
<path d="M139.521 28.6545C139.521 33.653 137.022 36.5361 131.726 36.5361C126.429 36.5361 123.895 33.6899 123.895 28.6545V19.6699H127.381V28.6361C127.381 31.7807 128.518 33.4053 131.708 33.4053C134.84 33.4053 136.034 31.7761 136.034 28.6361V19.6699H139.521V28.6545Z" fill="white"/>
<path d="M97.8858 28.6545C97.8858 33.653 95.3862 36.5361 90.0912 36.5361C84.7962 36.5361 82.2598 33.6899 82.2598 28.6545V19.6699H85.7463V28.6361C85.7463 31.7807 86.8835 33.4053 90.0728 33.4053C93.2053 33.4053 94.3992 31.7761 94.3992 28.6361V19.6699H97.8858V28.6545Z" fill="white"/>
<path d="M156.89 19.6699L150.985 30.1022L145.078 19.6699H142.09V36.3669H145.595V27.0176L150.985 36.3284L156.373 27.0176V36.3669H159.878V19.6699H156.89Z" fill="white"/>
<path d="M73.7852 19.6699H70.8044L62.9883 36.3484H66.5055L68.3523 32.3992H76.2358L78.0887 36.3484H81.6044L73.7852 19.6699ZM69.7408 29.4407L72.2956 24.0007L74.8503 29.4468L69.7408 29.4407Z" fill="white"/>
<path d="M2.81535 36.3369V19.52L17.0682 11.8123V24.2984L14.1717 22.7123V16.7123L5.7165 21.3092V34.5692L14.1717 39.1692V31.5L12.5104 30.5969V27.3292L17.0744 29.8077V44.0631L2.81535 36.3369ZM0.121094 55.8769L18.9134 45.6508V10.2661L0.124159 0.123047L0.121094 55.8769Z" fill="white"/>
<path d="M20.7616 31.3481L23.6627 32.9281V39.1773L32.147 34.5604V32.0681L20.7539 25.8527V11.8496L34.9899 19.5973V24.4111L32.147 22.9111V21.3635L23.6566 16.7435V24.1327L35.0482 30.3804V36.2942L20.7616 44.0696V31.3481Z" fill="white"/>
</svg>
