<svg width="24" height="24" viewBox="0 0 24 24" fill="none" xmlns="http://www.w3.org/2000/svg">
    <path d="M10.0835 12.6699C9.94132 12.6699 9.82812 12.7857 9.82812 12.9253C9.82812 13.0674 9.94395 13.1806 10.0835 13.1806C10.2256 13.1806 10.3388 13.0648 10.3388 12.9253C10.3388 12.7831 10.2256 12.6699 10.0835 12.6699Z" fill="#59657B"/>
    <path d="M10.6987 12.6699C10.5566 12.6699 10.4434 12.7857 10.4434 12.9253C10.4434 13.0674 10.5592 13.1806 10.6987 13.1806C10.8408 13.1806 10.954 13.0648 10.954 12.9253C10.9567 12.7831 10.8408 12.6699 10.6987 12.6699Z" fill="#59657B"/>
    <path d="M8.69141 2.84288V3.21404C8.69141 3.31934 8.79144 3.40621 8.91252 3.40621H11.795H11.7976H14.68C14.8011 3.40621 14.9012 3.31934 14.9012 3.21404V2.84288C14.9012 2.75601 14.8222 2.68757 14.7248 2.68757H11.795H11.7923H8.86514C8.77038 2.68494 8.69141 2.75601 8.69141 2.84288ZM11.795 2.84288H14.7248C14.7327 2.84288 14.738 2.84551 14.7432 2.84815V3.21141C14.7432 3.22457 14.7169 3.24563 14.68 3.24563H11.795H11.7923H8.91252C8.87304 3.24563 8.84935 3.22457 8.84935 3.21141V2.84815C8.85198 2.84551 8.85988 2.84288 8.86777 2.84288H11.795Z" fill="#59657B"/>
    <path d="M6.93595 17.1484L6.47266 17.1853V17.6328L6.93595 17.6775V17.6196H7.65985V17.2063H6.93595V17.1484ZM7.53876 17.3248V17.5012H6.93332V17.3248H7.53876Z" fill="#59657B"/>
    <path d="M16.6594 17.6775L17.1227 17.6407V17.1932L16.6594 17.1484V17.2063H15.9355V17.6196H16.6594V17.6775ZM16.054 17.5012V17.3248H16.6594V17.5012H16.054Z" fill="#59657B"/>
    <path d="M11.7959 3.46094C10.4982 3.46094 11.1484 3.73734 11.7933 3.73997C12.4619 3.73734 13.1121 3.46094 11.7959 3.46094Z" fill="#59657B"/>
    <path d="M11.3438 6.24038H11.7966H11.7992H12.252C12.3889 6.24038 12.5021 6.12982 12.5021 5.99031C12.5021 5.85079 12.3915 5.74023 12.252 5.74023H11.7992H11.7966H11.3438C11.2069 5.74023 11.0938 5.85079 11.0938 5.99031C11.0938 6.12982 11.2069 6.24038 11.3438 6.24038Z" fill="#59657B"/>
    <path d="M12.8402 8.4306L13.3746 10.4128L13.5273 10.3707L12.9929 8.38849C12.9271 8.14894 12.7086 7.98047 12.4585 7.98047H11.7978H11.7952H11.1345C10.8844 7.98047 10.6659 8.14894 10.6001 8.38849L10.0684 10.3707L10.221 10.4128L10.7554 8.4306C10.8028 8.2595 10.9581 8.13841 11.1371 8.13841H11.7978H11.8005H12.4612C12.6375 8.13841 12.7955 8.25687 12.8402 8.4306Z" fill="#59657B"/>
    <path d="M13.2827 7.85333C13.2169 7.61378 12.9984 7.44531 12.7483 7.44531H11.7981H11.7954H10.8451C10.5951 7.44531 10.3766 7.61378 10.3108 7.85333L9.62109 10.3725L9.77377 10.4146L10.4635 7.89545C10.5108 7.72434 10.6661 7.60325 10.8451 7.60325H11.7954H11.7981H12.7483C12.9273 7.60325 13.0827 7.72434 13.13 7.89545L13.8197 10.4146L13.9724 10.3725L13.2827 7.85333Z" fill="#59657B"/>
    <path d="M11.237 7.9121H11.7977H11.8003H12.3584C12.4242 7.9121 12.4795 7.85682 12.4795 7.79101C12.4795 7.7252 12.4242 7.66992 12.3584 7.66992H11.7977H11.7951H11.2344C11.1686 7.66992 11.1133 7.7252 11.1133 7.79101C11.1133 7.85682 11.1712 7.9121 11.237 7.9121Z" fill="#59657B"/>
    <path d="M13.5092 12.6699C13.3671 12.6699 13.2539 12.7857 13.2539 12.9253C13.2539 13.0674 13.3697 13.1806 13.5092 13.1806C13.6488 13.1806 13.7646 13.0648 13.7646 12.9253C13.7646 12.7831 13.6488 12.6699 13.5092 12.6699Z" fill="#59657B"/>
    <path d="M12.894 12.6699C12.7519 12.6699 12.6387 12.7857 12.6387 12.9253C12.6387 13.0674 12.7545 13.1806 12.894 13.1806C13.0335 13.1806 13.1493 13.0648 13.1493 12.9253C13.1493 12.7831 13.0362 12.6699 12.894 12.6699Z" fill="#59657B"/>
    <path d="M20.465 22.3852L18.1748 21.3744L18.2301 21.2928H18.7224V18.4287H18.8435L18.3038 17.926H18.4197L18.417 17.8444C18.3328 14.496 17.9379 10.9318 17.9169 10.7317C17.9221 10.6764 17.9274 10.6448 17.9274 10.6422V10.6343V10.6264C17.9221 10.5448 17.8221 8.61265 17.4167 7.99668L16.8981 4.42719C16.8929 4.37454 16.8323 3.71382 16.6139 3.42689C16.3848 3.1268 16.0479 2.99255 15.961 2.96096C15.89 2.88462 15.5741 2.56084 14.9739 2.23443C14.3553 1.90012 13.3023 1.5 11.8019 1.5C10.3014 1.5 9.2485 1.90012 8.62989 2.23443C8.02708 2.56084 7.7112 2.88462 7.64275 2.96096C7.55325 2.99255 7.21631 3.1268 6.98993 3.42689C6.77144 3.71382 6.7109 4.37191 6.70563 4.42719L6.18706 7.99668C5.78167 8.61265 5.67901 10.5448 5.67638 10.6264V10.6343V10.6422C5.67638 10.6448 5.68164 10.6738 5.68691 10.7317C5.66322 10.9344 5.27099 14.496 5.18413 17.847L5.18149 17.9286H5.29732L4.74979 18.4287H4.87087V21.2928H5.36313L5.41841 21.3744L3.12825 22.3852C3.0756 22.4089 3.05191 22.4721 3.0756 22.5247C3.09403 22.5642 3.13088 22.5879 3.173 22.5879C3.18616 22.5879 3.20196 22.5852 3.21512 22.58L3.27303 22.5537C3.27303 22.5694 3.27566 22.5826 3.28356 22.5984C3.30199 22.6353 3.33884 22.6589 3.37832 22.6589C3.39412 22.6589 3.40991 22.6563 3.42307 22.6484L3.65999 22.5352C3.64419 22.5668 3.64419 22.6037 3.66262 22.6353C3.68105 22.6695 3.7179 22.6879 3.75475 22.6879C3.77318 22.6879 3.7916 22.6826 3.8074 22.6747L4.59448 22.222L4.24964 22.4642C4.20225 22.4984 4.19172 22.5642 4.22595 22.6116C4.247 22.6405 4.27859 22.6563 4.31018 22.6563C4.33124 22.6563 4.3523 22.6511 4.37073 22.6353L4.9946 22.1851C4.99196 22.2141 4.99986 22.2457 5.02355 22.2694C5.03145 22.2799 5.04198 22.2852 5.05514 22.2904L4.91299 22.4431C4.87351 22.4852 4.87614 22.551 4.91826 22.5931C4.93932 22.6116 4.96564 22.6221 4.98933 22.6221C5.01829 22.6221 5.04461 22.6116 5.06567 22.5879L5.75272 21.8534L5.79483 21.914H5.70533V22.3325L5.66322 22.4484C5.64742 22.4957 5.66585 22.5458 5.70533 22.5694V22.7116H11.794H11.7966H17.8853V22.5694C17.9248 22.5431 17.9432 22.4931 17.9274 22.4484L17.8853 22.3325V21.914H17.7958L17.8379 21.8534L18.525 22.5879C18.546 22.6089 18.575 22.6221 18.6013 22.6221C18.6276 22.6221 18.6539 22.6116 18.6724 22.5931C18.7145 22.5537 18.7171 22.4878 18.6776 22.4431L18.5355 22.2904C18.546 22.2852 18.5565 22.2773 18.5671 22.2694C18.5908 22.2457 18.5987 22.2141 18.596 22.1851L19.2199 22.6353C19.2383 22.6484 19.2594 22.6563 19.2804 22.6563C19.312 22.6563 19.3462 22.6405 19.3647 22.6116C19.3989 22.5642 19.3884 22.4984 19.341 22.4642L18.9961 22.2141L19.7832 22.6668C19.799 22.6774 19.8174 22.68 19.8359 22.68C19.8727 22.68 19.9069 22.6616 19.928 22.6274C19.9464 22.5958 19.9464 22.5589 19.9306 22.5273L20.1675 22.6405C20.1833 22.6484 20.1965 22.6511 20.2123 22.6511C20.2518 22.6511 20.2886 22.63 20.3071 22.5905C20.315 22.5773 20.3176 22.5616 20.3176 22.5458L20.3755 22.5721C20.3887 22.5773 20.4045 22.58 20.4176 22.58C20.4571 22.58 20.4966 22.5563 20.515 22.5168C20.544 22.4694 20.5203 22.4089 20.465 22.3852ZM16.4717 22.2325L16.7981 21.9245L17.0456 21.9377L16.9482 22.2299H16.4717V22.2325ZM15.7399 22.2325L16.348 21.9008L16.5059 21.9087L16.1795 22.2193C16.1742 22.2246 16.1716 22.2272 16.169 22.2325H15.7399ZM6.64509 22.2325L6.54769 21.9403L6.79513 21.9272L7.12155 22.2351H6.64509V22.2325ZM5.3526 21.1374C5.3368 21.1348 5.31311 21.119 5.31048 21.1138C5.31048 21.1138 5.31048 21.1085 5.31574 21.1006C5.3368 21.0532 5.41314 21.0032 5.53686 20.9479C5.54476 20.9453 5.55002 20.9426 5.55529 20.94L5.56845 21.0822C5.54476 21.0874 5.52633 21.0927 5.51844 21.0953C5.48948 21.1085 5.47369 21.1348 5.47105 21.1638L5.46316 21.1664L5.3526 21.1374ZM10.4199 21.2875C10.4725 21.2901 10.5278 21.2928 10.5805 21.2928H11.794H11.7966H13.0101C13.0628 21.2928 13.1181 21.2901 13.1707 21.2875H14.3079V21.0295C14.4869 20.9637 14.6527 20.8953 14.7949 20.8321C15.066 20.711 15.4109 20.6662 15.6715 20.6478L15.6372 20.89L15.9637 20.9242L16.5796 20.9874C16.5612 21.0085 16.5428 21.0374 16.527 21.0716C16.5244 21.0795 16.5138 21.0953 16.477 21.0953C16.4191 21.0927 16.3664 21.0953 16.3164 21.1006C16.1848 21.1164 15.9821 21.1559 15.7636 21.2533C15.6267 21.3138 15.4688 21.398 15.3766 21.506H11.7966H11.794H8.21398C8.12185 21.398 7.9639 21.3138 7.82702 21.2533C7.60853 21.1559 7.40584 21.1164 7.27422 21.1006C7.22421 21.0953 7.17156 21.0927 7.11365 21.0953C7.0768 21.098 7.0689 21.0795 7.06363 21.0716C7.04521 21.0348 7.02941 21.0085 7.01099 20.9874L7.95337 20.8926L7.91915 20.6505C8.17976 20.6663 8.5246 20.7136 8.79573 20.8347C8.93788 20.8979 9.10108 20.9663 9.28272 21.0321V21.2901H10.4199V21.2875ZM14.8528 22.1825C14.8607 22.2036 14.8739 22.2193 14.8923 22.2325H11.7966H11.794H8.70097C8.71939 22.222 8.73255 22.2036 8.74045 22.1825C8.75361 22.1483 8.74835 22.1114 8.72729 22.0825L9.01422 22.1746C9.02475 22.1772 9.03528 22.1799 9.0458 22.1799C9.09056 22.1799 9.13267 22.1509 9.14583 22.1062C9.1511 22.093 9.1511 22.0798 9.1511 22.064L9.25903 22.0904C9.26692 22.093 9.27482 22.093 9.28272 22.093C9.31957 22.093 9.35379 22.0719 9.37222 22.0403H11.7914H11.794H14.2131C14.2316 22.0719 14.2658 22.093 14.3026 22.093C14.3105 22.093 14.3211 22.093 14.329 22.0904L14.4343 22.064C14.4316 22.0772 14.4343 22.093 14.4395 22.1062C14.4527 22.1509 14.4948 22.1799 14.5395 22.1799C14.5501 22.1799 14.5606 22.1772 14.5711 22.1746L14.8581 22.0825C14.8449 22.1114 14.8396 22.1483 14.8528 22.1825ZM14.2947 21.885H11.7993H11.7966H9.29851L8.35086 21.6639H11.7966H11.7993H15.1713L14.2947 21.885ZM18.2407 21.1374L18.1354 21.1638L18.1275 21.1611C18.1248 21.1322 18.109 21.1085 18.0801 21.0927C18.0722 21.0874 18.0538 21.0848 18.0301 21.0795L18.0432 20.9374C18.0485 20.94 18.0538 20.9426 18.0617 20.9453C18.188 20.9979 18.2617 21.0506 18.2828 21.098C18.288 21.1085 18.288 21.1111 18.288 21.1111C18.2828 21.119 18.2591 21.1322 18.2407 21.1374ZM17.88 20.9611L15.9821 20.7689L15.8189 20.7531L15.8347 20.6426C15.9716 20.6399 16.0611 20.6426 16.0637 20.6426C16.0742 20.6426 17.1035 20.6584 17.78 20.6452C17.8247 20.6452 17.8669 20.6426 17.9063 20.6426L17.88 20.9611ZM7.75858 20.6426L7.77437 20.7531L5.71323 20.9611L5.68428 20.6452C5.72376 20.6452 5.76588 20.6452 5.81063 20.6478C6.48451 20.661 7.5164 20.6452 7.52956 20.6452C7.53483 20.6426 7.6217 20.6373 7.75858 20.6426ZM7.4269 22.2325C7.42427 22.2272 7.419 22.2246 7.41637 22.2193L7.08733 21.9087L7.24527 21.9008L7.85334 22.2325H7.4269ZM8.11921 22.1377L7.64275 21.8798L7.67171 21.8771L8.57461 22.2325H8.17186C8.17449 22.193 8.15607 22.1562 8.11921 22.1377ZM15.016 22.2325L15.9189 21.8771L15.9479 21.8798L15.4714 22.1377C15.4346 22.1562 15.4161 22.193 15.4161 22.2325H15.016ZM18.5644 21.1348H18.4407C18.446 21.1059 18.4407 21.0716 18.4223 21.0321C18.3696 20.9216 18.2328 20.8505 18.1196 20.8031C18.1143 20.8005 18.109 20.7979 18.1064 20.7979C18.1038 20.7952 18.0985 20.7926 18.0959 20.79C18.1117 20.7873 18.1327 20.79 18.1564 20.7926C18.2433 20.8058 18.3723 20.7873 18.4091 20.7821C18.4828 20.7715 18.5302 20.761 18.5618 20.7452V21.1348H18.5644ZM6.01332 17.2916C6.01332 17.1389 6.13704 17.0152 6.28972 17.0152H11.0754C11.0938 17.0388 11.1227 17.0573 11.1543 17.0573C11.3439 17.0573 11.7492 17.0546 11.794 17.0573H11.1543L11.2017 17.768H6.01332V17.2916ZM11.7966 16.8572H8.46405L9.73285 7.73607C9.76971 7.46494 10.0066 7.25961 10.2804 7.25961H11.7993H11.8019H13.3208C13.5945 7.25961 13.8314 7.46494 13.8683 7.73607L15.1371 16.8572H11.7966ZM11.7993 17.0546C11.844 17.052 12.2494 17.0546 12.4389 17.0546C12.4705 17.0546 12.4995 17.0388 12.5179 17.0125H17.3062C17.4588 17.0125 17.5826 17.1362 17.5826 17.2889V17.7654H12.3915L12.4389 17.0546H11.7993ZM11.4939 2.40553V2.3055V2.57664C11.5966 2.63981 11.7887 2.62928 11.7966 2.62928C11.8045 2.62928 11.9967 2.63718 12.0993 2.57664V2.40553C12.2204 2.40553 12.3336 2.40553 12.4416 2.40553C12.7653 2.40553 13.0444 2.40553 13.3392 2.40817H13.376C13.6919 2.4108 14.021 2.41606 14.5238 2.4924C14.8686 2.54505 15.1634 2.65561 15.4003 2.82145C15.4293 2.86357 15.5556 3.0531 15.4951 3.23736C15.4425 3.39267 15.2687 3.50849 14.9739 3.58483C14.021 3.82964 11.8177 3.80595 11.7966 3.80595V3.82438V3.80595C11.7545 3.80595 9.56701 3.82964 8.61936 3.58483C8.32717 3.50849 8.1508 3.39267 8.09815 3.23736C8.03761 3.05573 8.16396 2.86357 8.19292 2.82145C8.43246 2.65561 8.72729 2.54505 9.0695 2.4924C9.57228 2.41343 9.90132 2.4108 10.2172 2.40817H10.2541C10.5489 2.40553 10.8279 2.40553 11.1517 2.40553C11.2596 2.40553 11.3728 2.40553 11.4939 2.40553ZM7.94811 3.28738C8.01918 3.49533 8.22977 3.64801 8.57988 3.73751C9.54859 3.98758 11.6861 3.96653 11.7966 3.96389C11.8151 3.96389 11.8888 3.96389 12.002 3.96389C12.5811 3.96389 14.2052 3.94547 15.0134 3.73751C15.3635 3.64801 15.5741 3.49533 15.6451 3.28738C15.6715 3.21104 15.6741 3.13733 15.6662 3.06889C15.7267 3.14786 15.7768 3.23473 15.8162 3.32686C15.8215 3.34792 15.8426 3.45585 15.7741 3.5743C15.6952 3.70855 15.5267 3.80595 15.274 3.86123C14.6054 4.01128 13.3708 4.09288 11.7966 4.09288C10.2225 4.09288 8.98789 4.01128 8.31927 3.86123C8.06657 3.80595 7.89809 3.70855 7.81912 3.5743C7.74805 3.45585 7.77174 3.34529 7.77701 3.32686C7.81649 3.23473 7.86651 3.14786 7.92705 3.06889C7.91915 3.13733 7.92179 3.21367 7.94811 3.28738ZM10.8042 5.38537H11.7966H11.7993H12.7917C13.126 5.38537 13.4155 5.62228 13.4866 5.94606L13.5235 6.19614C12.6048 6.31196 11.8203 6.28038 11.8019 6.28038L11.7993 6.34355L11.7966 6.28038C11.7782 6.28038 10.9938 6.3146 10.0751 6.19614L10.1119 5.94606C10.1804 5.62228 10.4699 5.38537 10.8042 5.38537ZM10.1751 5.49856L10.2435 5.03263C10.2883 4.73781 10.5436 4.51669 10.8437 4.51669H11.7966H11.7993H12.7522C13.0496 4.51669 13.3076 4.73781 13.3497 5.03263L13.4182 5.49856C13.2576 5.33272 13.0338 5.22743 12.789 5.22743H11.7966H11.794H10.8042C10.5594 5.22743 10.3357 5.33009 10.1751 5.49856ZM16.448 4.42982C16.4138 4.69306 16.3085 4.91681 16.1558 5.11161L16.0584 3.67433C16.0505 3.54008 16.0189 3.41373 15.9716 3.29264C16.4796 3.71645 16.4506 4.37717 16.448 4.42982ZM15.9005 3.68486L16.0084 5.27481C15.4688 5.79865 14.5317 6.05399 13.6788 6.17508L13.6498 5.97239C13.6472 5.95396 13.6445 5.93554 13.6393 5.91711L13.505 5.00894C13.4498 4.63778 13.126 4.35875 12.7495 4.35875H11.7966H11.794H10.8411C10.4646 4.35875 10.1409 4.63778 10.0856 5.00894L9.95134 5.91711C9.94871 5.93554 9.94344 5.95396 9.94081 5.97239L9.91185 6.17508C9.05897 6.05399 8.12185 5.79865 7.58221 5.27481L7.69014 3.68486C7.69014 3.6796 7.69014 3.67433 7.69277 3.66644C7.79806 3.83228 7.99812 3.9481 8.28505 4.01128C8.9642 4.16395 10.2119 4.24556 11.794 4.24556C11.794 4.24556 11.794 4.24556 11.7966 4.24556C13.3813 4.24556 14.6264 4.16132 15.3056 4.01128C15.5925 3.9481 15.7926 3.82964 15.8979 3.66644C15.9005 3.67433 15.9005 3.6796 15.9005 3.68486ZM7.61906 3.29264C7.57168 3.41373 7.54273 3.54272 7.53483 3.67433L7.43743 5.11161C7.28475 4.91681 7.18209 4.69306 7.14524 4.42982C7.14261 4.3877 7.11891 3.71908 7.61906 3.29264ZM11.7966 1.65794C13.2602 1.65794 14.2842 2.0449 14.887 2.37131C14.9476 2.40553 15.0055 2.43712 15.0608 2.47134C14.9028 2.4108 14.7317 2.36868 14.5474 2.33972C14.0341 2.26075 13.6998 2.25549 13.3787 2.25286H13.3418C13.0444 2.25022 12.7653 2.25022 12.4416 2.25022C12.3626 2.25022 12.281 2.25022 12.1941 2.25022C12.231 2.16862 11.8993 2.14756 11.794 2.14756C11.6887 2.14756 11.357 2.16862 11.3939 2.25022C11.3096 2.25022 11.228 2.25022 11.1464 2.25022C10.8227 2.25022 10.5436 2.25022 10.2462 2.25286H10.2093C9.88816 2.25549 9.55385 2.26075 9.04054 2.33972C8.86154 2.36868 8.69307 2.4108 8.53776 2.46871C9.19585 2.08175 10.262 1.65794 11.7966 1.65794ZM6.31868 8.07302L6.3292 8.05722L6.77671 4.97209C6.83988 5.15109 6.94781 5.35641 7.13471 5.56964C7.46639 5.94606 7.96654 6.24879 8.61936 6.46464C9.44066 6.73841 10.5094 6.87529 11.7966 6.87529C13.0839 6.87529 14.1526 6.73577 14.9739 6.46464C15.6267 6.24879 16.1269 5.94606 16.4585 5.56964C16.6454 5.35905 16.7534 5.15109 16.8165 4.97209L17.264 8.05722L17.2746 8.07302C17.6536 8.61792 17.7616 10.5001 17.7695 10.629C17.7589 10.7185 17.651 11.6004 17.6115 12.9087C17.5747 14.1459 17.6536 16.3992 17.6694 16.8572H15.2898L14.0183 7.71501C13.971 7.36491 13.6682 7.10167 13.3155 7.10167H11.7966H11.794H10.2778C9.92501 7.10167 9.62229 7.36491 9.57491 7.71501L8.30348 16.8572H5.92382C5.93961 16.3992 6.01859 14.1459 5.98173 12.9087C5.94225 11.5978 5.83432 10.7159 5.82379 10.629C5.83169 10.5001 5.93961 8.61792 6.31868 8.07302ZM5.52107 17.926H11.7966H11.7993H18.0748L18.446 18.2708H11.7966H11.794H5.14991L5.52107 17.926ZM11.7966 18.4287H18.5644V20.5557C18.4907 20.5188 18.3038 20.4794 17.7774 20.4899C17.1061 20.503 16.0769 20.4872 16.069 20.4872C16.0374 20.4846 15.2713 20.453 14.7317 20.6926C14.2974 20.8847 13.6472 21.1401 13.0101 21.1401H11.7966H11.794H10.5805C9.94344 21.1401 9.29325 20.8847 8.85891 20.6926C8.31927 20.4557 7.55325 20.4872 7.5243 20.4872C7.51377 20.4872 6.48715 20.503 5.81326 20.4899C5.28679 20.4794 5.09989 20.5188 5.02618 20.5557V18.4287H11.7966ZM5.17096 21.0321C5.15254 21.0716 5.14991 21.1085 5.15254 21.1348H5.02882V20.7452C5.0604 20.7584 5.11042 20.7715 5.18149 20.7821C5.21835 20.7873 5.34733 20.8031 5.4342 20.7926C5.45789 20.79 5.47895 20.79 5.49738 20.79C5.49475 20.7926 5.48948 20.7952 5.48685 20.7952C5.48422 20.7979 5.47895 20.7979 5.47369 20.8005C5.36049 20.8505 5.22361 20.9216 5.17096 21.0321ZM11.7966 22.5537H5.86591V22.5168L6.02385 22.0693H6.28709V22.3904H6.47662L6.48451 22.4141C6.50031 22.4589 6.53979 22.4878 6.58454 22.4878C6.59507 22.4878 6.6056 22.4852 6.61613 22.4826C6.65825 22.4694 6.68457 22.4326 6.68721 22.3904H7.29528C7.30844 22.3983 7.32424 22.401 7.34003 22.401C7.35583 22.401 7.37162 22.3983 7.38478 22.3904H8.89576C9.21164 22.4457 9.69863 22.5142 10.2356 22.5142C10.7779 22.5142 11.2149 22.4668 11.486 22.4273C11.6913 22.3983 11.8967 22.3983 12.102 22.4273C12.3731 22.4668 12.8101 22.5142 13.3524 22.5142C13.8894 22.5142 14.3763 22.4484 14.6922 22.3904H16.2032C16.2164 22.3983 16.2322 22.401 16.248 22.401C16.2637 22.401 16.2795 22.3983 16.2927 22.3904H16.9008C16.9034 22.4326 16.9324 22.4694 16.9719 22.4826C16.9824 22.4852 16.9929 22.4878 17.0061 22.4878C17.0508 22.4878 17.0903 22.4589 17.1061 22.4141L17.114 22.3904H17.3035V22.0693H17.5668L17.7247 22.5168V22.5537H11.7966Z" fill="#59657B"/>
</svg>
