<svg width="17" height="16" viewBox="0 0 17 16" fill="none" xmlns="http://www.w3.org/2000/svg">
<path d="M4.49935 1.33337H12.4993C13.2327 1.33337 13.8327 1.93337 13.8327 2.66671V5.54671H3.16602V2.66671C3.16602 1.93337 3.76602 1.33337 4.49935 1.33337Z" stroke="white" stroke-linecap="round" stroke-linejoin="round"/>
<path d="M3.16602 5.54675V7.92008C3.16602 8.64008 3.5527 9.30674 4.18604 9.66007L6.15934 10.7734C6.57934 11.0067 6.83936 11.4534 6.83936 11.9334V13.3334C6.83936 14.0667 7.43936 14.6667 8.17269 14.6667H8.83936C9.57269 14.6667 10.1727 14.0667 10.1727 13.3334V11.9334C10.1727 11.4534 10.4327 11.0067 10.8527 10.7734L12.826 9.66007C13.4527 9.30674 13.846 8.64008 13.846 7.92008V5.54675H3.16602Z" stroke="white" stroke-linecap="round" stroke-linejoin="round"/>
</svg>
