<svg width="33" height="32" viewBox="0 0 33 32" fill="none" xmlns="http://www.w3.org/2000/svg">
<path d="M13.944 16.8932C13.7544 16.8932 13.6035 17.0476 13.6035 17.2336C13.6035 17.4232 13.7579 17.5741 13.944 17.5741C14.1335 17.5741 14.2844 17.4197 14.2844 17.2336C14.2844 17.0441 14.1335 16.8932 13.944 16.8932Z" fill="#09091C"/>
<path d="M14.7633 16.8932C14.5738 16.8932 14.4229 17.0476 14.4229 17.2336C14.4229 17.4232 14.5773 17.5741 14.7633 17.5741C14.9528 17.5741 15.1038 17.4197 15.1038 17.2336C15.1073 17.0441 14.9528 16.8932 14.7633 16.8932Z" fill="#09091C"/>
<path d="M12.0879 3.79055V4.28543C12.0879 4.42583 12.2213 4.54165 12.3827 4.54165H16.226H16.2295H20.0727C20.2342 4.54165 20.3676 4.42583 20.3676 4.28543V3.79055C20.3676 3.67472 20.2623 3.58347 20.1324 3.58347H16.226H16.2225H12.3195C12.1932 3.57996 12.0879 3.67472 12.0879 3.79055ZM16.226 3.79055H20.1324C20.1429 3.79055 20.15 3.79406 20.157 3.79757V4.28192C20.157 4.29947 20.1219 4.32755 20.0727 4.32755H16.226H16.2225H12.3827C12.3301 4.32755 12.2985 4.29947 12.2985 4.28192V3.79757C12.302 3.79406 12.3125 3.79055 12.323 3.79055H16.226Z" fill="#09091C"/>
<path d="M9.74468 22.8646L9.12695 22.9138V23.5104L9.74468 23.5701V23.4929H10.7099V22.9418H9.74468V22.8646ZM10.5484 23.0998V23.3349H9.74117V23.0998H10.5484Z" fill="#09091C"/>
<path d="M22.7123 23.5701L23.33 23.521V22.9243L22.7123 22.8646V22.9418H21.7471V23.4929H22.7123V23.5701ZM21.905 23.3349V23.0998H22.7123V23.3349H21.905Z" fill="#09091C"/>
<path d="M16.2263 4.61462C14.4959 4.61462 15.3629 4.98315 16.2228 4.98666C17.1143 4.98315 17.9812 4.61462 16.2263 4.61462Z" fill="#09091C"/>
<path d="M15.6235 8.32055H16.2272H16.2307H16.8344C17.0169 8.32055 17.1678 8.17314 17.1678 7.98712C17.1678 7.8011 17.0204 7.65369 16.8344 7.65369H16.2307H16.2272H15.6235C15.441 7.65369 15.29 7.8011 15.29 7.98712C15.29 8.17314 15.441 8.32055 15.6235 8.32055Z" fill="#09091C"/>
<path d="M17.6187 11.2408L18.3312 13.8837L18.5348 13.8275L17.8223 11.1846C17.7345 10.8653 17.4432 10.6406 17.1098 10.6406H16.2288H16.2253H15.3443C15.0109 10.6406 14.7196 10.8653 14.6318 11.1846L13.9229 13.8275L14.1264 13.8837L14.8389 11.2408C14.9021 11.0127 15.1092 10.8512 15.3478 10.8512H16.2288H16.2323H17.1133C17.3484 10.8512 17.559 11.0092 17.6187 11.2408Z" fill="#09091C"/>
<path d="M18.2074 10.4711C18.1196 10.1518 17.8283 9.92712 17.4949 9.92712H16.2278H16.2243H14.9573C14.6238 9.92712 14.3325 10.1518 14.2448 10.4711L13.3252 13.83L13.5288 13.8862L14.4483 10.5273C14.5115 10.2992 14.7186 10.1377 14.9573 10.1377H16.2243H16.2278H17.4949C17.7335 10.1377 17.9406 10.2992 18.0038 10.5273L18.9234 13.8862L19.1269 13.83L18.2074 10.4711Z" fill="#09091C"/>
<path d="M15.4794 10.5495H16.227H16.2305H16.9746C17.0623 10.5495 17.136 10.4758 17.136 10.388C17.136 10.3003 17.0623 10.2266 16.9746 10.2266H16.227H16.2235H15.4759C15.3882 10.2266 15.3145 10.3003 15.3145 10.388C15.3145 10.4758 15.3917 10.5495 15.4794 10.5495Z" fill="#09091C"/>
<path d="M18.5123 16.8932C18.3228 16.8932 18.1719 17.0476 18.1719 17.2336C18.1719 17.4232 18.3263 17.5741 18.5123 17.5741C18.6983 17.5741 18.8528 17.4197 18.8528 17.2336C18.8528 17.0441 18.6983 16.8932 18.5123 16.8932Z" fill="#09091C"/>
<path d="M17.6901 16.8932C17.5005 16.8932 17.3496 17.0476 17.3496 17.2336C17.3496 17.4232 17.504 17.5741 17.6901 17.5741C17.8761 17.5741 18.0305 17.4197 18.0305 17.2336C18.0305 17.0441 17.8796 16.8932 17.6901 16.8932Z" fill="#09091C"/>
<path d="M27.785 29.8469L24.7315 28.4991L24.8052 28.3903H25.4615V24.5717H25.623L24.9035 23.9013H25.0579L25.0544 23.7925C24.9421 19.328 24.4156 14.5757 24.3875 14.3089C24.3946 14.2352 24.4016 14.1931 24.4016 14.1896V14.1791V14.1685C24.3946 14.0597 24.2612 11.4835 23.7207 10.6622L23.0292 5.90292C23.0222 5.83272 22.9415 4.95176 22.6502 4.56919C22.3448 4.16907 21.8956 3.99007 21.7797 3.94795C21.685 3.84617 21.2638 3.41446 20.4636 2.97924C19.6388 2.53349 18.2348 2 16.2342 2C14.2336 2 12.8297 2.53349 12.0049 2.97924C11.2011 3.41446 10.78 3.84617 10.6887 3.94795C10.5694 3.99007 10.1201 4.16907 9.81828 4.56919C9.52696 4.95176 9.44624 5.82921 9.43922 5.90292L8.74778 10.6622C8.20727 11.4835 8.07039 14.0597 8.06688 14.1685V14.1791V14.1896C8.06688 14.1931 8.0739 14.2317 8.08092 14.3089C8.04933 14.5792 7.52636 19.328 7.41054 23.796L7.40703 23.9048H7.56146L6.83142 24.5717H6.99287V28.3903H7.64921L7.72291 28.4991L4.66937 29.8469C4.59917 29.8785 4.56759 29.9627 4.59917 30.0329C4.62374 30.0856 4.67288 30.1172 4.72904 30.1172C4.74659 30.1172 4.76765 30.1137 4.7852 30.1066L4.86241 30.0715C4.86241 30.0926 4.86592 30.1102 4.87645 30.1312C4.90102 30.1803 4.95016 30.2119 5.0028 30.2119C5.02386 30.2119 5.04492 30.2084 5.06247 30.1979L5.37835 30.047C5.3573 30.0891 5.3573 30.1382 5.38186 30.1803C5.40643 30.226 5.45557 30.2505 5.50471 30.2505C5.52928 30.2505 5.55385 30.2435 5.5749 30.233L6.62434 29.6293L6.16455 29.9522C6.10138 29.9978 6.08734 30.0856 6.13297 30.1488C6.16104 30.1874 6.20316 30.2084 6.24528 30.2084C6.27336 30.2084 6.30144 30.2014 6.32601 30.1803L7.15783 29.5802C7.15432 29.6188 7.16485 29.6609 7.19644 29.6925C7.20697 29.7065 7.22101 29.7135 7.23856 29.7206L7.04903 29.9241C6.99638 29.9803 6.99989 30.068 7.05605 30.1242C7.08413 30.1488 7.11923 30.1628 7.15081 30.1628C7.18942 30.1628 7.22452 30.1488 7.2526 30.1172L8.16866 29.1379L8.22482 29.2187H8.10548V29.7767L8.04933 29.9311C8.02827 29.9943 8.05284 30.061 8.10548 30.0926V30.2821H16.2237H16.2272H24.3454V30.0926C24.3981 30.0575 24.4226 29.9908 24.4016 29.9311L24.3454 29.7767V29.2187H24.2261L24.2822 29.1379L25.1983 30.1172C25.2264 30.1452 25.265 30.1628 25.3001 30.1628C25.3352 30.1628 25.3703 30.1488 25.3949 30.1242C25.451 30.0715 25.4545 29.9838 25.4019 29.9241L25.2123 29.7206C25.2264 29.7135 25.2404 29.703 25.2545 29.6925C25.2861 29.6609 25.2966 29.6188 25.2931 29.5802L26.1249 30.1803C26.1495 30.1979 26.1775 30.2084 26.2056 30.2084C26.2477 30.2084 26.2934 30.1874 26.3179 30.1488C26.3636 30.0856 26.3495 29.9978 26.2864 29.9522L25.8266 29.6188L26.876 30.2225C26.8971 30.2365 26.9216 30.24 26.9462 30.24C26.9953 30.24 27.041 30.2154 27.069 30.1698C27.0936 30.1277 27.0936 30.0786 27.0726 30.0364L27.3884 30.1874C27.4095 30.1979 27.427 30.2014 27.4481 30.2014C27.5008 30.2014 27.5499 30.1733 27.5745 30.1207C27.585 30.1031 27.5885 30.0821 27.5885 30.061L27.6657 30.0961C27.6833 30.1031 27.7043 30.1066 27.7219 30.1066C27.7745 30.1066 27.8272 30.0751 27.8517 30.0224C27.8903 29.9592 27.8588 29.8785 27.785 29.8469ZM22.4606 29.6433L22.8959 29.2327L23.2258 29.2502L23.0959 29.6398H22.4606V29.6433ZM21.4849 29.6433L22.2957 29.2011L22.5063 29.2116L22.0711 29.6258C22.064 29.6328 22.0605 29.6363 22.057 29.6433H21.4849ZM9.35849 29.6433L9.22863 29.2538L9.55855 29.2362L9.99377 29.6469H9.35849V29.6433ZM7.63517 28.1833C7.61411 28.1797 7.58252 28.1587 7.57901 28.1517C7.57901 28.1517 7.57901 28.1446 7.58603 28.1341C7.61411 28.0709 7.71589 28.0043 7.88086 27.9306C7.89139 27.927 7.89841 27.9235 7.90543 27.92L7.92297 28.1096C7.89139 28.1166 7.86682 28.1236 7.85629 28.1271C7.81768 28.1446 7.79662 28.1797 7.79311 28.2184L7.78258 28.2219L7.63517 28.1833ZM14.3916 28.3833C14.4618 28.3868 14.5355 28.3903 14.6057 28.3903H16.2237H16.2272H17.8452C17.9154 28.3903 17.9891 28.3868 18.0593 28.3833H19.5756V28.0394C19.8142 27.9516 20.0354 27.8604 20.2249 27.7761C20.5864 27.6147 21.0462 27.555 21.3937 27.5304L21.348 27.8533L21.7833 27.899L22.6046 27.9832C22.58 28.0113 22.5554 28.0499 22.5344 28.0955C22.5308 28.106 22.5168 28.1271 22.4677 28.1271C22.3905 28.1236 22.3203 28.1271 22.2536 28.1341C22.0781 28.1552 21.8078 28.2078 21.5165 28.3377C21.334 28.4184 21.1234 28.5307 21.0006 28.6746H16.2272H16.2237H11.4503C11.3275 28.5307 11.1169 28.4184 10.9344 28.3377C10.6431 28.2078 10.3728 28.1552 10.1973 28.1341C10.1307 28.1271 10.0605 28.1236 9.98324 28.1271C9.9341 28.1306 9.92357 28.106 9.91655 28.0955C9.89198 28.0464 9.87092 28.0113 9.84636 27.9832L11.1029 27.8568L11.0572 27.5339C11.4047 27.555 11.8645 27.6182 12.226 27.7796C12.4155 27.8639 12.6332 27.9551 12.8753 28.0429V28.3868H14.3916V28.3833ZM20.3021 29.5767C20.3126 29.6047 20.3302 29.6258 20.3548 29.6433H16.2272H16.2237H12.0997C12.1242 29.6293 12.1418 29.6047 12.1523 29.5767C12.1699 29.531 12.1628 29.4819 12.1348 29.4433L12.5173 29.5661C12.5314 29.5696 12.5454 29.5731 12.5594 29.5731C12.6191 29.5731 12.6753 29.5345 12.6928 29.4749C12.6998 29.4573 12.6998 29.4398 12.6998 29.4187L12.8437 29.4538C12.8543 29.4573 12.8648 29.4573 12.8753 29.4573C12.9245 29.4573 12.9701 29.4292 12.9947 29.3871H16.2202H16.2237H19.4492C19.4738 29.4292 19.5194 29.4573 19.5686 29.4573C19.5791 29.4573 19.5931 29.4573 19.6037 29.4538L19.744 29.4187C19.7405 29.4363 19.744 29.4573 19.7511 29.4749C19.7686 29.5345 19.8248 29.5731 19.8844 29.5731C19.8985 29.5731 19.9125 29.5696 19.9266 29.5661L20.3091 29.4433C20.2916 29.4819 20.2846 29.531 20.3021 29.5767ZM19.558 29.18H16.2307H16.2272H12.8964L11.6329 28.8852H16.2272H16.2307H20.7268L19.558 29.18ZM24.8192 28.1833L24.6789 28.2184L24.6683 28.2148C24.6648 28.1762 24.6438 28.1447 24.6052 28.1236C24.5946 28.1166 24.5701 28.1131 24.5385 28.106L24.556 27.9165C24.563 27.92 24.5701 27.9235 24.5806 27.927C24.7491 27.9972 24.8473 28.0674 24.8754 28.1306C24.8824 28.1447 24.8824 28.1482 24.8824 28.1482C24.8754 28.1587 24.8438 28.1762 24.8192 28.1833ZM24.3384 27.9481L21.8078 27.6919L21.5902 27.6708L21.6113 27.5234C21.7938 27.5199 21.9131 27.5234 21.9166 27.5234C21.9307 27.5234 23.303 27.5445 24.205 27.5269C24.2647 27.5269 24.3209 27.5234 24.3735 27.5234L24.3384 27.9481ZM10.8431 27.5234L10.8642 27.6708L8.11601 27.9481L8.07741 27.5269C8.13005 27.5269 8.18621 27.5269 8.24588 27.5304C9.14439 27.548 10.5202 27.5269 10.5378 27.5269C10.5448 27.5234 10.6606 27.5164 10.8431 27.5234ZM10.4009 29.6433C10.3974 29.6363 10.3904 29.6328 10.3869 29.6258L9.94814 29.2116L10.1587 29.2011L10.9695 29.6433H10.4009ZM11.324 29.517L10.6887 29.173L10.7273 29.1695L11.9312 29.6433H11.3942C11.3977 29.5907 11.3731 29.5416 11.324 29.517ZM20.5197 29.6433L21.7236 29.1695L21.7622 29.173L21.1269 29.517C21.0778 29.5416 21.0532 29.5907 21.0532 29.6433H20.5197ZM25.251 28.1797H25.086C25.093 28.1411 25.086 28.0955 25.0614 28.0429C24.9912 27.8955 24.8087 27.8007 24.6578 27.7375C24.6508 27.734 24.6438 27.7305 24.6402 27.7305C24.6367 27.727 24.6297 27.7235 24.6262 27.72C24.6473 27.7165 24.6753 27.72 24.7069 27.7235C24.8228 27.741 24.9947 27.7165 25.0439 27.7094C25.1422 27.6954 25.2053 27.6814 25.2474 27.6603V28.1797H25.251ZM8.51613 23.0554C8.51613 22.8518 8.6811 22.6869 8.88467 22.6869H15.2655C15.2901 22.7185 15.3287 22.743 15.3708 22.743C15.6235 22.743 16.164 22.7395 16.2237 22.743H15.3708L15.434 23.6907H8.51613V23.0554ZM16.2272 22.4763H11.7838L13.4755 10.3148C13.5246 9.95325 13.8405 9.67949 14.2056 9.67949H16.2307H16.2342H18.2594C18.6244 9.67949 18.9403 9.95325 18.9894 10.3148L20.6812 22.4763H16.2272ZM16.2307 22.7395C16.2904 22.736 16.8309 22.7395 17.0836 22.7395C17.1257 22.7395 17.1643 22.7185 17.1889 22.6834H23.5733C23.7768 22.6834 23.9418 22.8483 23.9418 23.0519V23.6872H17.0204L17.0836 22.7395H16.2307ZM15.8236 3.20738V3.074V3.43552C15.9605 3.51975 16.2167 3.50571 16.2272 3.50571C16.2377 3.50571 16.494 3.51624 16.6308 3.43552V3.20738C16.7923 3.20738 16.9432 3.20738 17.0871 3.20738C17.5188 3.20738 17.8909 3.20738 18.284 3.21089H18.3331C18.7543 3.2144 19.193 3.22142 19.8634 3.3232C20.3232 3.3934 20.7163 3.54081 21.0322 3.76193C21.0708 3.81809 21.2392 4.07079 21.1585 4.31648C21.0883 4.52356 20.8567 4.67799 20.4636 4.77978C19.193 5.10619 16.2553 5.0746 16.2272 5.0746V5.09917V5.0746C16.1711 5.0746 13.2544 5.10619 11.9909 4.77978C11.6013 4.67799 11.3661 4.52356 11.2959 4.31648C11.2152 4.0743 11.3837 3.81809 11.4223 3.76193C11.7417 3.54081 12.1348 3.3934 12.591 3.3232C13.2614 3.21791 13.7001 3.2144 14.1213 3.21089H14.1705C14.5636 3.20738 14.9356 3.20738 15.3673 3.20738C15.5112 3.20738 15.6621 3.20738 15.8236 3.20738ZM11.0959 4.38317C11.1906 4.66044 11.4714 4.86401 11.9382 4.98335C13.2298 5.31678 16.0798 5.2887 16.2272 5.28519C16.2518 5.28519 16.3501 5.28519 16.501 5.28519C17.2731 5.28519 19.4387 5.26062 20.5162 4.98335C20.983 4.86401 21.2638 4.66044 21.3586 4.38317C21.3937 4.28138 21.3972 4.18311 21.3866 4.09185C21.4674 4.19715 21.5341 4.31297 21.5867 4.43582C21.5937 4.46389 21.6218 4.6078 21.5305 4.76574C21.4253 4.94474 21.2006 5.0746 20.8637 5.14831C19.9722 5.34837 18.3261 5.45717 16.2272 5.45717C14.1283 5.45717 12.4822 5.34837 11.5907 5.14831C11.2538 5.0746 11.0292 4.94474 10.9239 4.76574C10.8291 4.6078 10.8607 4.46038 10.8677 4.43582C10.9204 4.31297 10.987 4.19715 11.0678 4.09185C11.0572 4.18311 11.0608 4.28489 11.0959 4.38317ZM14.904 7.18049H16.2272H16.2307H17.5539C17.9997 7.18049 18.3857 7.49638 18.4805 7.92809L18.5296 8.26152C17.3047 8.41595 16.2588 8.37383 16.2342 8.37383L16.2307 8.45807L16.2272 8.37383C16.2026 8.37383 15.1567 8.41946 13.9318 8.26152L13.9809 7.92809C14.0722 7.49638 14.4583 7.18049 14.904 7.18049ZM14.0652 7.33142L14.1564 6.71018C14.2161 6.31708 14.5565 6.02225 14.9567 6.02225H16.2272H16.2307H17.5013C17.8979 6.02225 18.2418 6.31708 18.298 6.71018L18.3893 7.33142C18.1752 7.1103 17.8768 6.96991 17.5504 6.96991H16.2272H16.2237H14.904C14.5776 6.96991 14.2793 7.10679 14.0652 7.33142ZM22.4291 5.90643C22.3834 6.25741 22.243 6.55575 22.0395 6.81547L21.9096 4.89911C21.8991 4.72011 21.857 4.55164 21.7938 4.39019C22.4712 4.95527 22.4326 5.83623 22.4291 5.90643ZM21.699 4.91315L21.8429 7.03308C21.1234 7.73154 19.8739 8.07199 18.7367 8.23344L18.6981 7.96318C18.6946 7.93862 18.6911 7.91405 18.6841 7.88948L18.5051 6.67859C18.4314 6.18371 17.9997 5.81166 17.4978 5.81166H16.2272H16.2237H14.9531C14.4512 5.81166 14.0195 6.18371 13.9458 6.67859L13.7668 7.88948C13.7633 7.91405 13.7563 7.93862 13.7528 7.96318L13.7142 8.23344C12.577 8.07199 11.3275 7.73154 10.608 7.03308L10.7519 4.91315C10.7519 4.90613 10.7519 4.89911 10.7554 4.88858C10.8958 5.1097 11.1625 5.26413 11.5451 5.34837C12.4506 5.55194 14.1143 5.66074 16.2237 5.66074C16.2237 5.66074 16.2237 5.66074 16.2272 5.66074C18.3401 5.66074 20.0003 5.54843 20.9058 5.34837C21.2884 5.26413 21.5551 5.10619 21.6955 4.88858C21.699 4.89911 21.699 4.90613 21.699 4.91315ZM10.6571 4.39019C10.5939 4.55164 10.5553 4.72362 10.5448 4.89911L10.4149 6.81547C10.2114 6.55575 10.0745 6.25741 10.0254 5.90643C10.0218 5.85027 9.99026 4.95878 10.6571 4.39019ZM16.2272 2.21059C18.1787 2.21059 19.544 2.72653 20.3477 3.16175C20.4285 3.20738 20.5057 3.2495 20.5794 3.29512C20.3688 3.2144 20.1407 3.15824 19.895 3.11963C19.2106 3.01434 18.7648 3.00732 18.3366 3.00381H18.2875C17.8909 3.0003 17.5188 3.0003 17.0871 3.0003C16.9818 3.0003 16.873 3.0003 16.7572 3.0003C16.8063 2.89149 16.3641 2.86342 16.2237 2.86342C16.0833 2.86342 15.6411 2.89149 15.6902 3.0003C15.5779 3.0003 15.4691 3.0003 15.3603 3.0003C14.9286 3.0003 14.5565 3.0003 14.1599 3.00381H14.1108C13.6826 3.00732 13.2368 3.01434 12.5524 3.11963C12.3138 3.15824 12.0891 3.2144 11.8821 3.29161C12.7595 2.77567 14.181 2.21059 16.2272 2.21059ZM8.92327 10.764L8.93731 10.743L9.53398 6.62945C9.61822 6.86812 9.76212 7.14189 10.0113 7.42618C10.4536 7.92809 11.1204 8.33172 11.9909 8.61952C13.0859 8.98454 14.5109 9.16705 16.2272 9.16705C17.9435 9.16705 19.3685 8.98103 20.4636 8.61952C21.334 8.33172 22.0009 7.92809 22.4431 7.42618C22.6923 7.1454 22.8362 6.86812 22.9204 6.62945L23.5171 10.743L23.5311 10.764C24.0366 11.4906 24.1805 14.0001 24.191 14.1721C24.177 14.2914 24.033 15.4672 23.9804 17.2116C23.9313 18.8612 24.0366 21.8656 24.0576 22.4763H20.8847L19.1895 10.2867C19.1263 9.81988 18.7227 9.4689 18.2524 9.4689H16.2272H16.2237H14.202C13.7317 9.4689 13.3281 9.81988 13.2649 10.2867L11.5697 22.4763H8.3968C8.41786 21.8656 8.52315 18.8612 8.47402 17.2116C8.42137 15.4637 8.27747 14.2879 8.26343 14.1721C8.27396 14.0001 8.41786 11.4906 8.92327 10.764ZM7.8598 23.9013H16.2272H16.2307H24.5981L25.093 24.3611H16.2272H16.2237H7.36491L7.8598 23.9013ZM16.2272 24.5717H25.251V27.4076C25.1527 27.3584 24.9035 27.3058 24.2015 27.3198C23.3065 27.3374 21.9342 27.3163 21.9236 27.3163C21.8815 27.3128 20.8602 27.2707 20.1407 27.5901C19.5615 27.8463 18.6946 28.1868 17.8452 28.1868H16.2272H16.2237H14.6057C13.7563 28.1868 12.8894 27.8463 12.3102 27.5901C11.5907 27.2742 10.5694 27.3163 10.5308 27.3163C10.5167 27.3163 9.1479 27.3374 8.24939 27.3198C7.54742 27.3058 7.29823 27.3584 7.19995 27.4076V24.5717H16.2272ZM7.39299 28.0429C7.36842 28.0955 7.36491 28.1446 7.36842 28.1797H7.20346V27.6603C7.24558 27.6778 7.31227 27.6954 7.40703 27.7094C7.45617 27.7165 7.62815 27.7375 7.74397 27.7235C7.77556 27.72 7.80364 27.72 7.82821 27.72C7.8247 27.7235 7.81768 27.727 7.81417 27.727C7.81066 27.7305 7.80364 27.7305 7.79662 27.734C7.6457 27.8007 7.46319 27.8955 7.39299 28.0429ZM16.2272 30.0715H8.31958V30.0224L8.53017 29.4257H8.88116V29.8539H9.13386L9.14439 29.8855C9.16545 29.9452 9.2181 29.9838 9.27776 29.9838C9.2918 29.9838 9.30584 29.9803 9.31988 29.9768C9.37604 29.9592 9.41114 29.9101 9.41465 29.8539H10.2254C10.243 29.8645 10.264 29.868 10.2851 29.868C10.3061 29.868 10.3272 29.8645 10.3447 29.8539H12.3594C12.7806 29.9276 13.4299 30.0189 14.1459 30.0189C14.8689 30.0189 15.4515 29.9557 15.813 29.9031C16.0868 29.8645 16.3606 29.8645 16.6343 29.9031C16.9959 29.9557 17.5785 30.0189 18.3015 30.0189C19.0175 30.0189 19.6668 29.9311 20.088 29.8539H22.1026C22.1202 29.8645 22.1413 29.868 22.1623 29.868C22.1834 29.868 22.2044 29.8645 22.222 29.8539H23.0327C23.0363 29.9101 23.0749 29.9592 23.1275 29.9768C23.1416 29.9803 23.1556 29.9838 23.1731 29.9838C23.2328 29.9838 23.2855 29.9452 23.3065 29.8855L23.317 29.8539H23.5698V29.4257H23.9207L24.1313 30.0224V30.0715H16.2272Z" fill="#09091C"/>
</svg>
