<svg width="33" height="32" viewBox="0 0 33 32" fill="none" xmlns="http://www.w3.org/2000/svg">
<path d="M12.9861 2.68127H16.0116H19.037C19.2406 2.68127 19.4021 2.51631 19.4021 2.31625V2.30572C19.4021 2.16181 19.2827 2.04248 19.1388 2.04248H16.0116H12.8843C12.7404 2.04248 12.6211 2.16181 12.6211 2.30572V2.31625C12.6211 2.51982 12.7861 2.68127 12.9861 2.68127ZM12.8317 2.30572C12.8317 2.27764 12.8563 2.25307 12.8843 2.25307H16.0116H19.1388C19.1669 2.25307 19.1915 2.27764 19.1915 2.30572V2.31625C19.1915 2.40048 19.1213 2.47068 19.037 2.47068H16.0116H12.9861C12.9019 2.47068 12.8317 2.40048 12.8317 2.31625V2.30572Z" fill="#59657B"/>
<path d="M13.9021 18.5265C13.7547 18.5265 13.6318 18.6458 13.6318 18.7967C13.6318 18.9477 13.7512 19.067 13.9021 19.067C14.0495 19.067 14.1723 18.9477 14.1723 18.7967C14.1723 18.6458 14.053 18.5265 13.9021 18.5265Z" fill="#59657B"/>
<path d="M14.5945 18.5265C14.4471 18.5265 14.3242 18.6458 14.3242 18.7967C14.3242 18.9477 14.4436 19.067 14.5945 19.067C14.7419 19.067 14.8647 18.9477 14.8647 18.7967C14.8647 18.6458 14.7419 18.5265 14.5945 18.5265Z" fill="#59657B"/>
<path d="M15.2297 4.25373C15.0086 4.17651 14.7734 4.34147 14.7734 4.57663V4.76616C14.7734 5.22946 15.0753 5.64361 15.521 5.77699C15.6579 5.81911 15.8229 5.84367 16.0124 5.84367C16.2054 5.84367 16.3704 5.8156 16.5108 5.77348C16.953 5.6366 17.2479 5.22595 17.2479 4.76616V4.57663C17.2479 4.34147 17.0162 4.17651 16.7916 4.25373C16.2897 4.42922 15.7351 4.42922 15.2297 4.25373Z" fill="#59657B"/>
<path d="M17.0677 16.9347C17.2607 16.9347 17.4432 16.8505 17.5696 16.7066C17.6959 16.5591 17.7521 16.3661 17.7275 16.1766L17.5555 14.9587C17.5099 14.6323 17.2256 14.3831 16.8957 14.3831H16.0112H15.1267C14.7968 14.3831 14.5125 14.6287 14.4669 14.9587L14.2949 16.1766C14.2668 16.3696 14.3265 16.5627 14.4529 16.7066C14.5792 16.854 14.7617 16.9347 14.9548 16.9347H16.0112H17.0677ZM14.9548 16.7241C14.8214 16.7241 14.6985 16.6679 14.6108 16.5662C14.5231 16.4679 14.4844 16.3345 14.502 16.2047L14.674 14.9867C14.7056 14.7621 14.8986 14.5936 15.1267 14.5936H16.0112H16.8957C17.1203 14.5936 17.3169 14.7621 17.3485 14.9867L17.5204 16.2047C17.538 16.3345 17.4994 16.4679 17.4116 16.5662C17.3239 16.6644 17.201 16.7241 17.0677 16.7241H16.0112H14.9548Z" fill="#59657B"/>
<path d="M16.8442 15.1729C16.9635 15.1729 17.0618 15.0746 17.0618 14.9553C17.0618 14.8359 16.9635 14.7377 16.8442 14.7377H16.0123H15.1805C15.0612 14.7377 14.9629 14.8359 14.9629 14.9553C14.9629 15.0746 15.0612 15.1729 15.1805 15.1729H16.0123H16.8442Z" fill="#59657B"/>
<path d="M18.1218 19.067C18.2692 19.067 18.3921 18.9477 18.3921 18.7967C18.3921 18.6458 18.2727 18.5265 18.1218 18.5265C17.9709 18.5265 17.8516 18.6458 17.8516 18.7967C17.8516 18.9477 17.9709 19.067 18.1218 19.067Z" fill="#59657B"/>
<path d="M17.4304 18.5265C17.283 18.5265 17.1602 18.6458 17.1602 18.7967C17.1602 18.9477 17.2795 19.067 17.4304 19.067C17.5813 19.067 17.7007 18.9477 17.7007 18.7967C17.7007 18.6458 17.5813 18.5265 17.4304 18.5265Z" fill="#59657B"/>
<path d="M15.0144 9.58681H16.0112H17.008C17.2818 9.58681 17.5029 9.3657 17.5029 9.09193C17.5029 8.81816 17.2818 8.59705 17.008 8.59705H16.0112H15.0144C14.7406 8.59705 14.5195 8.81816 14.5195 9.09193C14.5195 9.3657 14.7406 9.58681 15.0144 9.58681Z" fill="#59657B"/>
<path d="M25.8641 28.187H24.6708V26.5479V24.614C24.6708 24.4736 24.583 24.3543 24.4602 24.3087C24.7375 21.0094 24.211 17.5838 24.1864 17.4329L23.9828 14.3443C24.0214 13.007 23.9934 12.091 23.9583 11.4066C23.867 9.67973 22.8878 3.77972 22.8772 3.72357C22.7018 2.55129 21.1153 2.1266 20.9293 2.08097C20.652 1.92654 20.2589 1.89495 20.1677 1.88793C19.9676 1.82826 19.7114 1.77211 19.4095 1.72297C18.7357 1.60715 18.0302 1.54748 17.3177 1.54748H16.6508C16.6578 1.53344 16.6614 1.51589 16.6614 1.49834C16.6614 1.32987 16.0155 1.33338 16.0155 1.33338C16.0155 1.33338 15.3697 1.32987 15.3697 1.49834C15.3697 1.51589 15.3733 1.53344 15.3803 1.54748H14.7134C13.9974 1.54748 13.2954 1.60715 12.6216 1.72297C12.3197 1.77562 12.067 1.83177 11.8634 1.88793C11.7722 1.89495 11.3791 1.92654 11.1018 2.08097C10.9193 2.1266 9.33285 2.55129 9.15385 3.72357C9.14332 3.78323 8.16408 9.68324 8.07283 11.4066C8.03773 12.091 8.01316 13.007 8.04825 14.3443L7.84469 17.4329C7.82012 17.5838 7.29364 21.0094 7.57092 24.3087C7.44808 24.3543 7.36033 24.4736 7.36033 24.614V26.5479V28.187H6.16699V29.6682H6.34599V30.0402H8.36765H10.1506H16.0155H21.8805H23.6634H25.6851V29.6682H25.8641V28.187ZM25.6535 29.4576H23.6634V28.8855H24.569C24.762 28.8855 24.9165 28.7275 24.9165 28.538C24.9165 28.4889 24.9059 28.4432 24.8884 28.4011H25.6535V29.4576ZM16.012 28.6714H7.45861C7.38139 28.6714 7.32172 28.6082 7.32172 28.5345C7.32172 28.4608 7.3849 28.3976 7.45861 28.3976H7.56741H16.012H24.4567H24.5655C24.6427 28.3976 24.7024 28.4608 24.7024 28.5345C24.7024 28.6082 24.6392 28.6714 24.5655 28.6714H16.012ZM18.669 28.882H18.7848L18.669 29.1276V28.882ZM13.3551 29.1312L13.2393 28.8855H13.3551V29.1312ZM10.1471 28.882H10.4069L10.6771 29.4541H10.1471V28.882ZM8.86955 24.4982H8.98187H13.5727V25.4529H8.73618V24.4982H8.86955ZM23.1545 24.4982H23.2879V25.4529H18.4514V24.4982H23.0422H23.1545ZM13.5306 14.2109C13.5552 14.0179 13.7201 13.8705 13.9132 13.8705H16.012H18.1109C18.3075 13.8705 18.4724 14.0179 18.4935 14.2109L19.7044 24.2876H16.012H12.3197L13.5306 14.2109ZM15.0293 24.4982V24.6772H15.2574L15.3627 25.4529H13.7833V24.4982H15.0293ZM16.7702 24.6737C16.8509 24.6737 16.9983 24.6737 16.9983 24.6737V24.4947H18.2443V25.4494H16.6649L16.7702 24.6737ZM16.012 25.6635H23.5722C23.9056 25.6635 24.1934 25.846 24.3444 26.1197H23.9162C23.695 26.1197 23.4844 26.2285 23.3616 26.411C23.2739 26.5374 23.1335 26.6111 22.979 26.6111H16.012H9.04504C8.89061 26.6111 8.75022 26.5374 8.66247 26.411C8.53612 26.2285 8.32904 26.1197 8.10792 26.1197H7.67972C7.83065 25.8495 8.12196 25.6635 8.45188 25.6635H16.012ZM7.56741 26.5479C7.56741 26.4742 7.57794 26.4005 7.59549 26.3303H8.10792C8.26236 26.3303 8.40275 26.404 8.4905 26.5304C8.61685 26.7129 8.82393 26.8217 9.04504 26.8217H16.012H22.979C23.2001 26.8217 23.4107 26.7129 23.5336 26.5304C23.6213 26.404 23.7617 26.3303 23.9162 26.3303H24.4286C24.4461 26.4005 24.4567 26.4742 24.4567 26.5479V28.187H16.012H7.56741V26.5479ZM21.8805 28.882V29.4541H21.3505L21.6207 28.882H21.8805ZM24.4567 25.9021C24.2566 25.6284 23.9372 25.4529 23.5722 25.4529H23.4985V24.4982H24.3408C24.404 24.4982 24.4567 24.5508 24.4567 24.614V25.9021ZM10.8631 2.67062C10.9614 2.85664 11.1931 3.00405 11.4774 3.07776C11.4844 3.11988 11.516 3.15849 11.5616 3.17253C11.9757 3.31643 13.2428 3.64986 16.012 3.64986C18.7813 3.64986 20.0483 3.31643 20.4625 3.17253C20.5081 3.15849 20.5362 3.11988 20.5467 3.07776C20.831 3.00756 21.0627 2.85664 21.1609 2.67062C21.1785 2.63903 21.189 2.61095 21.196 2.57937L21.3786 2.74433C21.4207 2.78294 21.4417 2.83207 21.4382 2.88121C21.4101 3.17253 20.7924 3.43576 19.7465 3.60072C18.7918 3.75165 17.4686 3.83237 16.0155 3.82184V3.92714V3.82184C14.566 3.83237 13.2393 3.75165 12.2846 3.60072C11.2352 3.43225 10.6174 3.16902 10.5929 2.88121C10.5894 2.83207 10.6104 2.77943 10.649 2.74433L10.8315 2.57937C10.8386 2.60744 10.8491 2.63903 10.8631 2.67062ZM16.012 4.03243C16.0857 4.03243 16.1559 4.03243 16.2261 4.03243C17.602 4.03243 18.8585 3.95171 19.7746 3.8078C20.6555 3.66741 21.2171 3.47437 21.4768 3.21815L21.6207 4.53434C21.368 4.75896 19.736 6.0576 16.0085 6.0576C13.8921 6.0576 12.4706 5.63291 11.6493 5.27842C10.9123 4.95902 10.5121 4.63612 10.3998 4.53434L10.5437 3.21815C10.8035 3.47086 11.3685 3.66741 12.246 3.8078C13.1621 3.95522 14.4186 4.03243 15.7944 4.03243C15.8681 4.03594 15.9418 4.03594 16.012 4.03243ZM22.0454 3.74463C22.0735 3.93416 21.9963 4.13773 21.8138 4.34481L21.6944 3.23219C21.8348 3.33749 22.0138 3.51298 22.0454 3.74463ZM10.2103 4.34481C10.0278 4.13422 9.95058 3.93416 9.97866 3.74463C10.0102 3.51649 10.1928 3.33749 10.3332 3.23219L10.2103 4.34481ZM11.8845 2.0915H11.8985L11.9091 2.08799C12.1056 2.02832 12.3548 1.97568 12.6531 1.92303C13.3165 1.81072 14.0079 1.75105 14.7099 1.75105H15.5207V1.89144C15.5207 1.89144 15.64 1.97568 16.012 1.97568C16.3841 1.97568 16.5034 1.89144 16.5034 1.89144V1.75105H17.3142C18.0161 1.75105 18.7111 1.80721 19.3709 1.92303C19.6693 1.97568 19.9185 2.02832 20.115 2.08799L20.1256 2.0915H20.1396C20.2975 2.09852 20.7363 2.15819 20.9188 2.32315L20.9258 2.33017C20.9433 2.34772 20.9574 2.36527 20.9679 2.38282C21.003 2.44248 21.0065 2.50215 20.9714 2.56533C20.8942 2.71625 20.6239 2.8777 20.2589 2.90227C19.7324 2.93737 16.0506 2.90227 16.012 2.90227V2.91631V2.90227C15.9734 2.90227 12.2916 2.93737 11.7652 2.90227C11.4001 2.8777 11.1299 2.71625 11.0527 2.56533C11.0176 2.50215 11.0211 2.44248 11.0562 2.38282C11.0667 2.36527 11.0807 2.34772 11.0983 2.33017L11.1088 2.31964C11.2878 2.1617 11.716 2.10203 11.8845 2.0915ZM8.27991 11.4136C8.35361 10.0061 9.0275 5.78032 9.27318 4.28514C9.32934 4.38692 9.40305 4.49222 9.4943 4.59751C10.4209 5.67152 13.1129 6.78413 16.012 6.78413C18.9147 6.78413 21.6032 5.67152 22.5298 4.59751C22.621 4.49222 22.6947 4.38692 22.7509 4.28514C22.9931 5.78032 23.667 10.0061 23.7442 11.4136C23.8354 13.1509 23.853 16.373 22.9685 24.2876H20.5783L19.4236 13.9126C19.3604 13.351 18.8866 12.9263 18.325 12.9263H16.012H13.6991C13.134 12.9263 12.6602 13.351 12.6005 13.9126L11.4458 24.2876H9.05558C8.1711 16.373 8.18865 13.1509 8.27991 11.4136ZM7.56741 24.614C7.56741 24.5508 7.62006 24.4982 7.68324 24.4982H8.52559V25.4529H8.45188C8.09037 25.4529 7.76747 25.6319 7.56741 25.9021V24.614ZM6.37407 28.3976H7.13921C7.12167 28.4397 7.11113 28.4853 7.11113 28.5345C7.11113 28.7275 7.26908 28.882 7.45861 28.882H8.36414V29.4541H6.37407V28.3976ZM6.54956 29.8261V29.6646H8.36063V29.8261H6.54956ZM16.012 29.8261H10.1471V29.6646H10.7789L10.8491 29.8121L11.1018 29.6927L10.7192 28.882H10.828L11.2703 29.8121L11.523 29.6927L11.1404 28.882H11.2492L11.6915 29.8121L11.9442 29.6927L11.5616 28.882H11.6704L12.1126 29.8121L12.3653 29.6927L11.9828 28.882H12.0916L12.5338 29.8121L12.7865 29.6927L12.4039 28.882H12.5127L12.955 29.8121L13.2077 29.6927L12.8251 28.882H12.9339L13.3621 29.784V29.8156H13.6429V28.882H13.7482V29.8156H14.029V28.882H14.1343V29.8156H14.4151V28.882H14.5204V29.8156H14.8012V28.882H14.9064V29.8156H15.1872V28.882H16.0155H16.8439V29.8156H17.1247V28.882H17.2299V29.8156H17.5107V28.882H17.616V29.8156H17.8968V28.882H18.0021V29.8156H18.2829V28.882H18.3882V29.8156H18.669V29.784L19.0972 28.882H19.206L18.8234 29.6927L19.0761 29.8121L19.5183 28.882H19.6272L19.2446 29.6927L19.4973 29.8121L19.9395 28.882H20.0483L19.6658 29.6927L19.9185 29.8121L20.3607 28.882H20.4695L20.0869 29.6927L20.3396 29.8121L20.7819 28.882H20.8907L20.5081 29.6927L20.7608 29.8121L21.2031 28.882H21.3119L20.9293 29.6927L21.182 29.8121L21.2522 29.6646H21.884V29.8261H16.012ZM25.4745 29.8261H23.6634V29.6646H25.4745V29.8261Z" fill="#59657B"/>
</svg>
